<?xml version="1.0" encoding="UTF-8"?>
<svg width="6740px" height="4768px" viewBox="0 0 6740 4768" xmlns="http://www.w3.org/2000/svg" xmlns:xlink="http://www.w3.org/1999/xlink" version="1.1">
 <!-- Generated by Pixelmator Pro 2.0.5 -->
 <path id="Stair-A" d="M2316 909 L2485 909 2485 543 2316 543 Z" fill="none" stroke="#004d81" stroke-width="3" stroke-opacity="1" stroke-linejoin="round" stroke-linecap="round"/>
 <path id="CSR" d="M2485 820 L2664 820 2664 567 2485 567 Z" fill="none" stroke="#004d81" stroke-width="3" stroke-opacity="1" stroke-linejoin="round" stroke-linecap="round"/>
 <path id="MDF-Room" d="M2664 820 L2796 820 2796 567 2664 567 Z" fill="none" stroke="#004d81" stroke-width="3" stroke-opacity="1" stroke-linejoin="round" stroke-linecap="round"/>
 <path id="Pump-Room" d="M2796 820 L2969 820 2969 567 2796 567 Z" fill="none" stroke="#004d81" stroke-width="3" stroke-opacity="1" stroke-linejoin="round" stroke-linecap="round"/>
 <path id="Sprinkler-Tank" d="M2969 820 L3277 820 3277 567 2969 567 Z" fill="none" stroke="#004d81" stroke-width="3" stroke-opacity="1" stroke-linejoin="round" stroke-linecap="round"/>
 <path id="Sprinkler-Pump-Room" d="M3277 820 L3550 820 3550 567 3277 567 Z" fill="none" stroke="#004d81" stroke-width="3" stroke-opacity="1" stroke-linejoin="round" stroke-linecap="round"/>
 <path id="LAN-Room" d="M3675 754 L3784 754 3784 663 3675 663 Z" fill="none" stroke="#004d81" stroke-width="3" stroke-opacity="1" stroke-linejoin="round" stroke-linecap="round"/>
 <path id="FCC" d="M3675 909 L3784 909 3784 754 3675 754 Z" fill="none" stroke="#004d81" stroke-width="3" stroke-opacity="1" stroke-linejoin="round" stroke-linecap="round"/>
 <path id="Rainwater-Harvesting-Tank" d="M3688 663 L3922 663 3922 549 3688 549 Z" fill="none" stroke="#004d81" stroke-width="3" stroke-opacity="1" stroke-linejoin="round" stroke-linecap="round"/>
 <path id="FFL-1" d="M3784 891 L3922 891 3922 766 3784 766 Z" fill="none" stroke="#004d81" stroke-width="3" stroke-opacity="1" stroke-linejoin="round" stroke-linecap="round"/>
 <path id="Stair-B" d="M3922 864 L4089 864 4089 543 3922 543 Z" fill="none" stroke="#004d81" stroke-width="3" stroke-opacity="1" stroke-linejoin="round" stroke-linecap="round"/>
 <path id="Professional-Room-1" d="M4089 864 L4414 864 4414 567 4089 567 Z" fill="none" stroke="#004d81" stroke-width="3" stroke-opacity="1" stroke-linejoin="round" stroke-linecap="round"/>
 <path id="Professional-Room-2" d="M4414 864 L4736 864 4736 567 4414 567 Z" fill="none" stroke="#004d81" stroke-width="3" stroke-opacity="1" stroke-linejoin="round" stroke-linecap="round"/>
 <path id="Professional-Room-3-&amp;-4" d="M4736 909 L5389 909 5389 567 4736 567 Z" fill="none" stroke="#004d81" stroke-width="3" stroke-opacity="1" stroke-linejoin="round" stroke-linecap="round"/>
 <path id="Observation-Room" d="M4169 984 L4658 984 4658 864 4169 864 Z" fill="none" stroke="#004d81" stroke-width="3" stroke-opacity="1" stroke-linejoin="round" stroke-linecap="round"/>
 <path id="Sick-Bay" d="M2287 1651 L2452 1651 2452 1511 2287 1511 Z" fill="none" stroke="#004d81" stroke-width="3" stroke-opacity="1" stroke-linejoin="round" stroke-linecap="round"/>
 <path id="Pantry" d="M2452 1651 L2563 1651 2563 1511 2452 1511 Z" fill="none" stroke="#004d81" stroke-width="3" stroke-opacity="1" stroke-linejoin="round" stroke-linecap="round"/>
 <path id="Staff-Toilet" d="M2563 1574 L2630 1574 2630 1511 2563 1511 Z" fill="none" stroke="#004d81" stroke-width="3" stroke-opacity="1" stroke-linejoin="round" stroke-linecap="round"/>
 <path id="VP-1" d="M2673 1702 L2810 1702 2810 1605 2673 1605 Z" fill="none" stroke="#004d81" stroke-width="3" stroke-opacity="1" stroke-linejoin="round" stroke-linecap="round"/>
 <path id="VP2" d="M2673 1804 L2810 1804 2810 1702 2673 1702 Z" fill="none" stroke="#004d81" stroke-width="3" stroke-opacity="1" stroke-linejoin="round" stroke-linecap="round"/>
 <path id="Principal" d="M2673 1998 L2810 1998 2810 1804 2673 1804 Z" fill="none" stroke="#004d81" stroke-width="3" stroke-opacity="1" stroke-linejoin="round" stroke-linecap="round"/>
 <path id="VP3" d="M2673 2098 L2810 2098 2810 1998 2673 1998 Z" fill="none" stroke="#004d81" stroke-width="3" stroke-opacity="1" stroke-linejoin="round" stroke-linecap="round"/>
 <path id="Central-Server-Room" d="M2452 1849 L2588 1849 2588 1735 2452 1735 Z" fill="none" stroke="#004d81" stroke-width="3" stroke-opacity="1" stroke-linejoin="round" stroke-linecap="round"/>
 <path id="Store" d="M2810 1511 L2630 1511 2630 1558 2673 1558 2673 1605 2810 1605 2810 1511 Z" fill="none" stroke="#004d81" stroke-width="3" stroke-opacity="1" stroke-linejoin="round" stroke-linecap="round"/>
 <path id="Printing-Room" d="M2287 1653 L2350 1653 2350 1735 2452 1735 2452 1849 2287 1849 2287 1653 Z" fill="none" stroke="#004d81" stroke-width="3" stroke-opacity="1" stroke-linejoin="round" stroke-linecap="round"/>
 <path id="Meeting-Room" d="M2497 2401 L2810 2401 2810 2154 2497 2154 Z" fill="none" stroke="#004d81" stroke-width="3" stroke-opacity="1" stroke-linejoin="round" stroke-linecap="round"/>
 <path id="Reception" d="M2287 2401 L2497 2401 2497 2201 2287 2201 Z" fill="none" stroke="#004d81" stroke-width="3" stroke-opacity="1" stroke-linejoin="round" stroke-linecap="round"/>
 <path id="General-Office" d="M2287 1849 L2287 2201 2497 2201 2497 2154 2810 2154 2810 2098 2673 2098 2673 1558 2630 1558 2630 1574 2563 1574 2563 1651 2350 1653 2350 1735 2588 1735 2588 1849 2287 1849 Z" fill="none" stroke="#004d81" stroke-width="3" stroke-opacity="1" stroke-linejoin="round" stroke-linecap="round"/>
 <path id="Male-Toilet" d="M2868 1511 L2868 1558 2810 1558 2810 1849 2986 1849 2986 1616 2922 1616 2922 1511 2868 1511 Z" fill="none" stroke="#004d81" stroke-width="3" stroke-opacity="1" stroke-linejoin="round" stroke-linecap="round"/>
 <path id="HCP-Toilet" d="M2922 1616 L2986 1616 2986 1542 2922 1542 Z" fill="none" stroke="#004d81" stroke-width="3" stroke-opacity="1" stroke-linejoin="round" stroke-linecap="round"/>
 <path id="Female-Toilet" d="M2986 1511 L3040 1511 3041 1542 3139 1542 3139 1849 2986 1849 2986 1511 Z" fill="none" stroke="#004d81" stroke-width="3" stroke-opacity="1" stroke-linejoin="round" stroke-linecap="round"/>
 <path id="Janitor-Store" d="M2810 1558 L2868 1558 2868 1511 2810 1511 Z" fill="none" stroke="#004d81" stroke-width="3" stroke-opacity="1" stroke-linejoin="round" stroke-linecap="round"/>
 <path id="FFL-2" d="M3139 1523 L3219 1523 3219 1558 3243 1558 3243 1653 3139 1653 3139 1523 Z" fill="none" stroke="#004d81" stroke-width="3" stroke-opacity="1" stroke-linejoin="round" stroke-linecap="round"/>
 <path id="Stair-C" d="M3243 1558 L3449 1558 3449 1871 3286 1871 3286 1635 3243 1635 3243 1558 Z" fill="none" stroke="#004d81" stroke-width="3" stroke-opacity="1" stroke-linejoin="round" stroke-linecap="round"/>
 <path id="D&amp;T-Staff-Room" d="M4618 1991 L4824 1991 4824 1849 4618 1849 Z" fill="none" stroke="#004d81" stroke-width="3" stroke-opacity="1" stroke-linejoin="round" stroke-linecap="round"/>
 <path id="Main-Store" d="M4824 1991 L5215 1991 5215 1849 4824 1849 Z" fill="none" stroke="#004d81" stroke-width="3" stroke-opacity="1" stroke-linejoin="round" stroke-linecap="round"/>
 <path id="D&amp;T-Studio-1" d="M4618 1849 L4509 1849 4509 1937 4466 1937 4466 2384 4509 2384 4509 2464 4466 2464 4466 2539 5215 2539 5215 1991 4618 1991 4618 1849 Z" fill="none" stroke="#004d81" stroke-width="3" stroke-opacity="1" stroke-linejoin="round" stroke-linecap="round"/>
 <path id="Design-Room-1" d="M4466 2773 L4767 2773 4767 2539 4466 2539 Z" fill="none" stroke="#004d81" stroke-width="3" stroke-opacity="1" stroke-linejoin="round" stroke-linecap="round"/>
 <path id="Studio-Store-1" d="M4767 2773 L4912 2773 4912 2539 4767 2539 Z" fill="none" stroke="#004d81" stroke-width="3" stroke-opacity="1" stroke-linejoin="round" stroke-linecap="round"/>
 <path id="Design-Room-2" d="M4912 2773 L5215 2773 5215 2539 4912 2539 Z" fill="none" stroke="#004d81" stroke-width="3" stroke-opacity="1" stroke-linejoin="round" stroke-linecap="round"/>
 <path id="Stair-D" d="M5229 1871 L5396 1871 5396 1511 5229 1511 Z" fill="none" stroke="#004d81" stroke-width="3" stroke-opacity="1" stroke-linejoin="round" stroke-linecap="round"/>
 <path id="Stair-E" d="M2158 3300 L2323 3300 2323 2975 2158 2975 Z" fill="none" stroke="#004d81" stroke-width="3" stroke-opacity="1" stroke-linejoin="round" stroke-linecap="round"/>
 <path id="Riser-C-1" d="M2323 3300 L2355 3300 2355 3068 2323 3068 Z" fill="none" stroke="#004d81" stroke-width="3" stroke-opacity="1" stroke-linejoin="round" stroke-linecap="round"/>
 <path id="Media-Resource-Library" d="M2469 3021 C2470.102 3023.799 2839 3021 2839 3021 L2839 2975 3024 2975 3024 3801 2788 3801 C2788 3801 2792.55 4034.056 2788 4032 2783.45 4029.944 2610 4032 2610 4032 L2610 4086 2469 4086 C2469 4086 2467.898 3018.201 2469 3021 Z" fill="none" stroke="#004d81" stroke-width="3" stroke-opacity="1" stroke-linejoin="round" stroke-linecap="round"/>
 <path id="Stair-I" d="M2610 4086 L2997 4086 2997 4032 2610 4032 Z" fill="none" stroke="#004d81" stroke-width="3" stroke-opacity="1" stroke-linejoin="round" stroke-linecap="round"/>
 <path id="Discussion-Room-2" d="M2788 4032 L2908 4032 2908 3801 2788 3801 Z" fill="none" stroke="#004d81" stroke-width="3" stroke-opacity="1" stroke-linejoin="round" stroke-linecap="round"/>
 <path id="Discussion-Room-1" d="M3024 3801 L2908 3801 2908 4032 2997 4032 2997 4086 3024 4086 3024 3801 Z" fill="none" stroke="#004d81" stroke-width="3" stroke-opacity="1" stroke-linejoin="round" stroke-linecap="round"/>
 <path id="Workspace" d="M3108 3851 L3277 3851 3277 3695 3108 3695 Z" fill="none" stroke="#004d81" stroke-width="3" stroke-opacity="1" stroke-linejoin="round" stroke-linecap="round"/>
 <path id="Counselling-Group-Work-Room" d="M3277 3902 L3470 3902 3470 3695 3277 3695 Z" fill="none" stroke="#004d81" stroke-width="3" stroke-opacity="1" stroke-linejoin="round" stroke-linecap="round"/>
 <path id="Waiting-Area" d="M3108 4025 L3277 4025 3277 3851 3108 3851 Z" fill="none" stroke="#004d81" stroke-width="3" stroke-opacity="1" stroke-linejoin="round" stroke-linecap="round"/>
 <path id="Counselling-Room" d="M3277 4025 L3470 4025 3470 3902 3277 3902 Z" fill="none" stroke="#004d81" stroke-width="3" stroke-opacity="1" stroke-linejoin="round" stroke-linecap="round"/>
 <path id="Lecture-Theatre" d="M3108 3172 L3193 3172 3193 3137 3498 3137 3498 3172 3583 3172 3583 3695 3108 3695 3108 3172 Z" fill="none" stroke="#004d81" stroke-width="3" stroke-opacity="1" stroke-linejoin="round" stroke-linecap="round"/>
 <path id="Stair-G" d="M2158 4125 L2323 4125 2323 3801 2158 3801 Z" fill="none" stroke="#004d81" stroke-width="3" stroke-opacity="1" stroke-linejoin="round" stroke-linecap="round"/>
 <path id="NCC" d="M4314 2975 L4397 2975 4397 3184 4252 3184 4252 3014 4314 3014 4314 2975 Z" fill="none" stroke="#004d81" stroke-width="3" stroke-opacity="1" stroke-linejoin="round" stroke-linecap="round"/>
 <path id="NPCC" d="M4432 2975 L4488 2975 4488 3014 4553 3014 4553 3184 4397 3184 4397 3025 4432 3025 4432 2975 Z" fill="none" stroke="#004d81" stroke-width="3" stroke-opacity="1" stroke-linejoin="round" stroke-linecap="round"/>
 <path id="Book-Shop" d="M4640 3137 L4791 3137 4791 2975 4640 2975 Z" fill="none" stroke="#004d81" stroke-width="3" stroke-opacity="1" stroke-linejoin="round" stroke-linecap="round"/>
 <path id="Prefect" d="M4640 3328 L4791 3328 4791 3137 4640 3137 Z" fill="none" stroke="#004d81" stroke-width="3" stroke-opacity="1" stroke-linejoin="round" stroke-linecap="round"/>
 <path id="Health-&amp;-Fitness-Room" d="M4252 3184 L4497 3184 4497 3244 4532 3244 4532 3430 4497 3430 4497 3483 4252 3483 4252 3184 Z" fill="none" stroke="#004d81" stroke-width="3" stroke-opacity="1" stroke-linejoin="round" stroke-linecap="round"/>
 <path id="Game-Equipment-Store" d="M4584 3559 L4904 3559 4904 3328 4584 3328 Z" fill="none" stroke="#004d81" stroke-width="3" stroke-opacity="1" stroke-linejoin="round" stroke-linecap="round"/>
 <path id="Female-Toilet-1" d="M4672 3787 L4672 3731 4688 3731 4688 3691 4730 3691 4730 3559 4559 3559 C4559 3559 4556.069 3788.688 4559 3787 4561.931 3785.312 4672 3787 4672 3787 Z" fill="none" stroke="#004d81" stroke-width="3" stroke-opacity="1" stroke-linejoin="round" stroke-linecap="round"/>
 <path id="Male-Toilet-1" d="M4904 3559 L4904 3717 4835 3717 4835 3787 4716 3787 4716 3731 4730 3731 4730 3559 4904 3559 Z" fill="none" stroke="#004d81" stroke-width="3" stroke-opacity="1" stroke-linejoin="round" stroke-linecap="round"/>
 <path id="Parade-Square" d="M3070 2878 L4340 2878 4340 1936 3070 1936 Z" fill="none" stroke="#004d81" stroke-width="3" stroke-opacity="1" stroke-linejoin="round" stroke-linecap="round"/>
 <path id="Riser-A" d="M3922 891 L4089 891 4089 864 3922 864 Z" fill="none" stroke="#004d81" stroke-width="3" stroke-opacity="1" stroke-linejoin="round" stroke-linecap="round"/>
 <path id="Riser-B" d="M3221 1558 L3449 1558 3449 1523 3221 1523 Z" fill="none" stroke="#004d81" stroke-width="3" stroke-opacity="1" stroke-linejoin="round" stroke-linecap="round"/>
 <path id="FFL-3" d="M4791 3004 L4872 3004 4872 3093 4898 3093 4898 3222 4791 3222 4791 3004 Z" fill="none" stroke="#004d81" stroke-width="3" stroke-opacity="1" stroke-linejoin="round" stroke-linecap="round"/>
 <path id="Stair-F" d="M4872 3004 L5063 3004 5064 3328 4898 3328 4898 3093 4872 3093 4872 3004 Z" fill="none" stroke="#004d81" stroke-width="3" stroke-opacity="1" stroke-linejoin="round" stroke-linecap="round"/>
 <path id="Riser-C-2" d="M4834.658 3004.569 L5065.396 3004.569 5065.396 2975.869 4834.658 2975.869 Z" fill="none" stroke="#004d81" stroke-width="3" stroke-opacity="1" stroke-linejoin="round" stroke-linecap="round"/>
 <path id="HCP-Toilet-1" d="M4840 3787 L4904 3787 4904 3717 4840 3717 Z" fill="none" stroke="#004d81" stroke-width="3" stroke-opacity="1" stroke-linejoin="round" stroke-linecap="round"/>
 <path id="Janitor-Store-1" d="M4688 3731 L4730 3731 4730 3691 4688 3691 Z" fill="none" stroke="#004d81" stroke-width="3" stroke-opacity="1" stroke-linejoin="round" stroke-linecap="round"/>
 <path id="LAN-Room-1" d="M4252 4086 L4344 4086 4344 3969 4252 3969 Z" fill="none" stroke="#004d81" stroke-width="3" stroke-opacity="1" stroke-linejoin="round" stroke-linecap="round"/>
 <path id="CCA-4" d="M4344 3876 L4433 3876 4433 3909 4484 3909 4484 4086 4344 4086 4344 3876 Z" fill="none" stroke="#004d81" stroke-width="3" stroke-opacity="1" stroke-linejoin="round" stroke-linecap="round"/>
 <path id="CCA-3" d="M4484 3909 L4532 3909 4532 3876 4623 3876 4623 4086 4484 4086 4484 3909 Z" fill="none" stroke="#004d81" stroke-width="3" stroke-opacity="1" stroke-linejoin="round" stroke-linecap="round"/>
 <path id="CCA-2" d="M4712 3876 L4712 3909 4762 3909 4762 4086 4623 4086 4623 3876 4712 3876 Z" fill="none" stroke="#004d81" stroke-width="3" stroke-opacity="1" stroke-linejoin="round" stroke-linecap="round"/>
 <path id="CCA-1" d="M4810 3876 L4898 3876 4898 4086 4762 4086 4762 3909 4810 3909 4810 3876 Z" fill="none" stroke="#004d81" stroke-width="3" stroke-opacity="1" stroke-linejoin="round" stroke-linecap="round"/>
 <path id="Stair-H" d="M4898 4125 L5065 4125 5065 3902 4898 3902 Z" fill="none" stroke="#004d81" stroke-width="3" stroke-opacity="1" stroke-linejoin="round" stroke-linecap="round"/>
 <path id="Wood-Machine-Shop" d="M4077 1849 L4575 1849 4575 1511 4077 1511 Z" fill="none" stroke="#004d81" stroke-width="3" stroke-opacity="1" stroke-linejoin="round" stroke-linecap="round"/>
 <path id="Professional-Room-6" d="M4575 1849 L4736 1849 4736 1511 4575 1511 Z" fill="none" stroke="#004d81" stroke-width="3" stroke-opacity="1" stroke-linejoin="round" stroke-linecap="round"/>
 <path id="Professional-Room-5" d="M4736 1849 L5229 1849 5229 1511 4736 1511 Z" fill="none" stroke="#004d81" stroke-width="3" stroke-opacity="1" stroke-linejoin="round" stroke-linecap="round"/>
 <path id="FAVE-1" d="M3449 1849 L4077 1849 4077 1511 3449 1511 Z" fill="none" stroke="#004d81" stroke-width="3" stroke-opacity="1" stroke-linejoin="round" stroke-linecap="round"/>
 <path id="Heritage-Area" d="M2108 2975 L3024 2975 3024 2401 2108 2401 Z" fill="none" stroke="#004d81" stroke-width="3" stroke-opacity="1" stroke-linejoin="round" stroke-linecap="round"/>
 <path id="Heritage-Walk" d="M2810 1405 L2810 1511 2287 1511 2287 2401 2158 2401 2158 1405 2810 1405 Z" fill="none" stroke="#004d81" stroke-width="3" stroke-opacity="1" stroke-linejoin="round" stroke-linecap="round"/>
</svg>
